 http://leetleech.org/images/48230414001775245673.jpg

Video

Codec ID : XVID
Codec ID/Hint : XviD
Duration : 1h 25mn
Bit rate : 1 035 Kbps
Width : 640 pixels
Height : 352 pixels
Display aspect ratio : 16:9
Frame rate : 23.976 fps
Color space : YUV
Chroma subsampling : 4:2:0
Bit depth : 8 bits
Scan type : Progressive
Bits/(Pixel*Frame) : 0.192
Stream size : 636 MiB (91%)
Writing library : XviD 57


Codec ID/Hint : MP3
Duration : 1h 25mn
Bit rate mode : Variable
Bit rate : 94.5 Kbps
Nominal bit rate : 112 Kbps
Channel(s) : 2 channels
Sampling rate : 48.0 KHz
Stream size : 58.1 MiB (8%)
Alignment : Aligned on interleaves
Interleave, duration : 24 ms (0.58 video frame)
Interleave, preload duration : 195 ms
Writing library : LAME3.97

IMDB
 
http://www.imdb.com/title/tt1396557/